<mxfile host="app.diagrams.net" agent="Mozilla/5.0 (X11; Linux x86_64) AppleWebKit/537.36 (KHTML, like Gecko) Chrome/132.0.0.0 Safari/537.36" version="26.0.10">
  <diagram name="Página-1" id="zGG-YNEOcWLsdB0KCFtM">
    <mxGraphModel dx="757" dy="1790" grid="0" gridSize="10" guides="1" tooltips="1" connect="1" arrows="1" fold="1" page="0" pageScale="1" pageWidth="827" pageHeight="1169" math="0" shadow="0">
      <root>
        <mxCell id="0" />
        <mxCell id="1" parent="0" />
        <mxCell id="kXxcmXFumaLEJSKOMaeu-6" style="edgeStyle=none;curved=1;rounded=0;orthogonalLoop=1;jettySize=auto;html=1;fontSize=12;startSize=8;endSize=8;" edge="1" parent="1" source="kXxcmXFumaLEJSKOMaeu-1" target="kXxcmXFumaLEJSKOMaeu-5">
          <mxGeometry relative="1" as="geometry" />
        </mxCell>
        <mxCell id="kXxcmXFumaLEJSKOMaeu-1" value="Inició" style="ellipse;whiteSpace=wrap;html=1;" vertex="1" parent="1">
          <mxGeometry x="70" y="-258" width="161" height="80" as="geometry" />
        </mxCell>
        <mxCell id="kXxcmXFumaLEJSKOMaeu-10" style="edgeStyle=none;curved=1;rounded=0;orthogonalLoop=1;jettySize=auto;html=1;fontSize=12;startSize=8;endSize=8;" edge="1" parent="1" source="kXxcmXFumaLEJSKOMaeu-5" target="kXxcmXFumaLEJSKOMaeu-8">
          <mxGeometry relative="1" as="geometry" />
        </mxCell>
        <mxCell id="kXxcmXFumaLEJSKOMaeu-5" value="Entrar a github.com" style="whiteSpace=wrap;html=1;" vertex="1" parent="1">
          <mxGeometry x="90.5" y="-93" width="120" height="60" as="geometry" />
        </mxCell>
        <mxCell id="kXxcmXFumaLEJSKOMaeu-14" style="edgeStyle=none;curved=1;rounded=0;orthogonalLoop=1;jettySize=auto;html=1;fontSize=12;startSize=8;endSize=8;" edge="1" parent="1" source="kXxcmXFumaLEJSKOMaeu-8" target="kXxcmXFumaLEJSKOMaeu-11">
          <mxGeometry relative="1" as="geometry" />
        </mxCell>
        <mxCell id="kXxcmXFumaLEJSKOMaeu-8" value="Registrarse con correo electrónico&amp;nbsp;" style="whiteSpace=wrap;html=1;" vertex="1" parent="1">
          <mxGeometry x="90.5" y="29" width="120" height="60" as="geometry" />
        </mxCell>
        <mxCell id="kXxcmXFumaLEJSKOMaeu-15" style="edgeStyle=none;curved=1;rounded=0;orthogonalLoop=1;jettySize=auto;html=1;fontSize=12;startSize=8;endSize=8;" edge="1" parent="1" source="kXxcmXFumaLEJSKOMaeu-11" target="kXxcmXFumaLEJSKOMaeu-13">
          <mxGeometry relative="1" as="geometry" />
        </mxCell>
        <mxCell id="kXxcmXFumaLEJSKOMaeu-11" value="Hacer clic en crear nuevo repositorio&amp;nbsp;" style="whiteSpace=wrap;html=1;" vertex="1" parent="1">
          <mxGeometry x="93" y="154" width="120" height="60" as="geometry" />
        </mxCell>
        <mxCell id="kXxcmXFumaLEJSKOMaeu-20" style="edgeStyle=none;curved=1;rounded=0;orthogonalLoop=1;jettySize=auto;html=1;fontSize=12;startSize=8;endSize=8;" edge="1" parent="1" source="kXxcmXFumaLEJSKOMaeu-13" target="kXxcmXFumaLEJSKOMaeu-18">
          <mxGeometry relative="1" as="geometry" />
        </mxCell>
        <mxCell id="kXxcmXFumaLEJSKOMaeu-13" value="Ingresar datos y darle a crear&amp;nbsp;" style="whiteSpace=wrap;html=1;" vertex="1" parent="1">
          <mxGeometry x="93" y="290" width="120" height="60" as="geometry" />
        </mxCell>
        <mxCell id="kXxcmXFumaLEJSKOMaeu-22" style="edgeStyle=none;curved=1;rounded=0;orthogonalLoop=1;jettySize=auto;html=1;fontSize=12;startSize=8;endSize=8;" edge="1" parent="1" source="kXxcmXFumaLEJSKOMaeu-18" target="kXxcmXFumaLEJSKOMaeu-21">
          <mxGeometry relative="1" as="geometry" />
        </mxCell>
        <mxCell id="kXxcmXFumaLEJSKOMaeu-18" value="Ir a darw.io" style="whiteSpace=wrap;html=1;" vertex="1" parent="1">
          <mxGeometry x="90.5" y="409" width="120" height="60" as="geometry" />
        </mxCell>
        <mxCell id="kXxcmXFumaLEJSKOMaeu-21" value="Acceder a la cuenta de gitbub" style="whiteSpace=wrap;html=1;" vertex="1" parent="1">
          <mxGeometry x="90.5" y="532" width="120" height="60" as="geometry" />
        </mxCell>
      </root>
    </mxGraphModel>
  </diagram>
</mxfile>
